<?xml version="1.0" standalone="no"?>
<!DOCTYPE svg PUBLIC "-//W3C//DTD SVG 20010904//EN"
 "http://www.w3.org/TR/2001/REC-SVG-20010904/DTD/svg10.dtd">
<svg version="1.0" xmlns="http://www.w3.org/2000/svg"
 width="16.000000pt" height="16.000000pt" viewBox="0 0 16.000000 16.000000"
 preserveAspectRatio="xMidYMid meet">

<g transform="translate(0.000000,16.000000) scale(0.100000,-0.100000)"
fill="#000000" stroke="none">
<path d="M106 122 c-7 -12 10 -35 28 -38 19 -3 21 17 4 34 -14 14 -25 15 -32
4z"/>
<path d="M64 109 c-3 -6 -1 -16 5 -22 8 -8 11 -5 11 11 0 24 -5 28 -16 11z"/>
<path d="M20 99 c0 -5 5 -7 10 -4 6 3 10 8 10 11 0 2 -4 4 -10 4 -5 0 -10 -5
-10 -11z"/>
<path d="M95 81 c3 -15 -1 -18 -12 -14 -11 4 -14 2 -9 -5 8 -13 35 -16 52 -4
8 5 4 13 -12 25 -22 16 -23 16 -19 -2z"/>
<path d="M35 60 c3 -5 1 -10 -5 -10 -6 0 -9 -4 -6 -9 3 -5 15 -7 26 -4 16 4
17 7 5 19 -16 16 -29 19 -20 4z"/>
<path d="M65 20 c-3 -5 -1 -10 4 -10 6 0 11 5 11 10 0 6 -2 10 -4 10 -3 0 -8
-4 -11 -10z"/>
</g>
</svg>
